<svg width="100" height="80" viewBox="0 0 100 80" fill="none" xmlns="http://www.w3.org/2000/svg">
<path d="M92.7175 70.7879L70.8043 0L59.126 22.4242L75.4336 69.8182C75.9786 71.596 76.0565 73.0909 75.6672 74.303C75.3558 75.5152 74.3436 76.404 72.6308 76.9697L70.8043 77.5758V80H100V77.5758L98.5566 77.0909C96.8438 76.5253 95.5981 75.798 94.8196 74.9091C94.041 73.9394 93.3403 72.5657 92.7175 70.7879Z" fill="white"/>
<path d="M0 80V77.5758L38.5656 3.63086H16.7626C14.34 3.63086 12.3863 4.236 10.9015 5.44629C9.41673 6.65658 7.5412 8.42754 6.44714 10.6061L2.05136 18.7879H0V0H56.852V2.42057L17.8762 76.3691H40.91C43.3326 76.3691 45.2472 75.764 46.6538 74.5537C48.0605 73.2627 49.8969 71.6531 50.991 69.3939L55.0937 61.2121H56.852V80H0Z" fill="white"/>
</svg>
