<svg width="167" height="132" viewBox="0 0 167 132" fill="none" xmlns="http://www.w3.org/2000/svg">
<path d="M154.528 116.8L117 0L97 37L124.928 115.2C125.861 118.133 125.995 120.6 125.328 122.6C124.795 124.6 123.061 126.067 120.128 127L117 128V132H167V128L164.528 127.2C161.595 126.267 159.461 125.067 158.128 123.6C156.795 122 155.595 119.733 154.528 116.8Z" fill="black"/>
<path d="M0 132V128L65.8 5.99091H28.6C24.4667 5.99091 21.1333 6.9894 18.6 8.98638C16.0667 10.9834 12.8667 13.9054 11 17.5L3.5 31H0V0H97V3.99395L30.5 126.009H69.8C73.9333 126.009 77.2 125.011 79.6 123.014C82 120.884 85.1333 118.228 87 114.5L94 101H97V132H0Z" fill="black"/>
</svg>
