<svg width="156" height="120" viewBox="0 0 156 120" fill="none" xmlns="http://www.w3.org/2000/svg">
<path d="M143.955 106.182L109.932 0L91.8 33.6364L117.12 104.727C117.966 107.394 118.087 109.636 117.482 111.455C116.999 113.273 115.427 114.606 112.768 115.455L109.932 116.364V120H155.262V116.364L153.021 115.636C150.361 114.788 148.427 113.697 147.218 112.364C146.01 110.909 144.922 108.848 143.955 106.182Z" fill="#383838"/>
<path d="M0 120V116.364L59.8775 5.44629H26.0258C22.2645 5.44629 19.2312 6.354 16.9259 8.16943C14.6205 9.98487 11.7086 12.6413 10.0099 15.9091L3.18497 28.1818H0V0H88.2692V3.63086L27.7548 114.554H63.5174C67.2787 114.554 70.2514 113.646 72.4354 111.831C74.6194 109.894 77.4707 107.48 79.1693 104.091L85.5393 91.8182H88.2692V120H0Z" fill="#383838"/>
</svg>
